<?xml version="1.0" encoding="iso-8859-1"?>
<!-- Uploaded to: SVG Repo, www.svgrepo.com, Generator: SVG Repo Mixer Tools -->
<svg version="1.1" id="Layer_1" xmlns="http://www.w3.org/2000/svg" xmlns:xlink="http://www.w3.org/1999/xlink" 
	 viewBox="0 0 512 512" xml:space="preserve">
<path style="fill:#5B5D6E;" d="M415.24,441.78H96.76c-14.658,0-26.54-11.882-26.54-26.54V96.76c0-14.658,11.882-26.54,26.54-26.54
	H415.24c14.658,0,26.54,11.882,26.54,26.54V415.24C441.78,429.898,429.898,441.78,415.24,441.78z"/>
<rect x="105.607" y="105.607" style="fill:#707487;" width="300.786" height="300.786"/>
<path style="fill:#AFB9D2;" d="M309.08,309.08H202.92c-4.886,0-8.847-3.961-8.847-8.847v-53.08h123.853v53.08
	C317.927,305.119,313.965,309.08,309.08,309.08z"/>
<polygon style="fill:#959CB5;" points="194.073,282.544 255.986,300.233 317.927,282.537 317.927,247.153 194.073,247.153 "/>
<path style="fill:#C7CFE2;" d="M255.986,202.92l-112.558,32.16c-3.246,0.928-3.246,5.527,0,6.454l112.558,32.159l112.558-32.159
	c3.246-0.928,3.246-5.527,0-6.454L255.986,202.92z"/>
<path d="M503.706,175.827c4.58,0,8.294-3.713,8.294-8.294s-3.713-8.294-8.294-8.294h-53.633v-27.646h53.633
	c4.58,0,8.294-3.713,8.294-8.294c0-4.58-3.713-8.294-8.294-8.294h-53.633V96.76c0-19.207-15.627-34.834-34.834-34.834h-18.246V8.294
	c0-4.58-3.713-8.294-8.294-8.294s-8.294,3.713-8.294,8.294v53.633H352.76V8.294c0-4.58-3.713-8.294-8.294-8.294
	s-8.294,3.713-8.294,8.294v53.633h-27.646V8.294c0-4.58-3.713-8.294-8.294-8.294s-8.294,3.713-8.294,8.294v53.633h-27.646V8.294
	C264.294,3.713,260.58,0,256,0s-8.294,3.713-8.294,8.294v53.633H220.06V8.294c0-4.58-3.713-8.294-8.294-8.294
	s-8.294,3.713-8.294,8.294v53.633h-27.646V8.294c0-4.58-3.713-8.294-8.294-8.294s-8.294,3.713-8.294,8.294v53.633h-27.646V8.294
	c0-4.58-3.713-8.294-8.294-8.294c-4.58,0-8.294,3.713-8.294,8.294v53.633H96.76c-19.207,0-34.834,15.626-34.834,34.834v18.246H8.294
	C3.713,115.006,0,118.72,0,123.3c0,4.58,3.713,8.294,8.294,8.294h53.633v27.646H8.294c-4.58,0-8.294,3.713-8.294,8.294
	s3.713,8.294,8.294,8.294h53.633v27.646H8.294c-4.58,0-8.294,3.713-8.294,8.294s3.713,8.294,8.294,8.294h53.633v27.646H8.294
	C3.713,247.706,0,251.42,0,256s3.713,8.294,8.294,8.294h53.633v27.646H8.294c-4.58,0-8.294,3.713-8.294,8.294
	s3.713,8.294,8.294,8.294h53.633v27.646H8.294c-4.58,0-8.294,3.713-8.294,8.294s3.713,8.294,8.294,8.294h53.633v27.646H8.294
	c-4.58,0-8.294,3.713-8.294,8.294s3.713,8.294,8.294,8.294h53.633v18.246c0,19.207,15.626,34.834,34.834,34.834h18.246v53.633
	c0,4.581,3.713,8.294,8.294,8.294c4.58,0,8.294-3.712,8.294-8.294v-53.633h27.646v53.633c0,4.581,3.713,8.294,8.294,8.294
	s8.294-3.712,8.294-8.294v-53.633h27.646v53.633c0,4.581,3.713,8.294,8.294,8.294s8.294-3.712,8.294-8.294v-53.633h27.646v53.633
	c0,4.581,3.713,8.294,8.294,8.294s8.294-3.712,8.294-8.294v-53.633h27.646v53.633c0,4.581,3.713,8.294,8.294,8.294
	s8.294-3.712,8.294-8.294v-53.633h27.646v53.633c0,4.581,3.713,8.294,8.294,8.294s8.294-3.712,8.294-8.294v-53.633h27.646v53.633
	c0,4.581,3.713,8.294,8.294,8.294s8.294-3.712,8.294-8.294v-53.633h18.246c19.207,0,34.834-15.627,34.834-34.834v-18.246h53.633
	c4.58,0,8.294-3.713,8.294-8.294s-3.713-8.294-8.294-8.294h-53.633V352.76h53.633c4.58,0,8.294-3.713,8.294-8.294
	s-3.713-8.294-8.294-8.294h-53.633v-27.646h53.633c4.58,0,8.294-3.713,8.294-8.294s-3.713-8.294-8.294-8.294h-53.633v-27.646h53.633
	c4.58,0,8.294-3.713,8.294-8.294s-3.713-8.294-8.294-8.294h-53.633V220.06h53.633c4.58,0,8.294-3.713,8.294-8.294
	s-3.713-8.294-8.294-8.294h-53.633v-27.646H503.706z M433.486,415.24c0,10.061-8.185,18.246-18.246,18.246H96.76
	c-10.061,0-18.246-8.185-18.246-18.246V96.76c0-10.061,8.185-18.246,18.246-18.246H415.24c10.061,0,18.246,8.185,18.246,18.246
	V415.24z"/>
<path d="M406.393,97.313H105.607c-4.58,0-8.294,3.713-8.294,8.294v300.786c0,4.58,3.713,8.294,8.294,8.294h300.786
	c4.58,0,8.294-3.713,8.294-8.294V105.607C414.687,101.027,410.973,97.313,406.393,97.313z M398.099,398.099H113.901V113.901h284.199
	V398.099z"/>
<path d="M141.149,249.508l44.617,12.748v37.978c0,9.452,7.689,17.14,17.14,17.14h106.16c9.452,0,17.14-7.689,17.14-17.14v-37.978
	l18.722-5.349l0.076,43.342c0.008,4.576,3.719,8.279,8.294,8.279c0.004,0,0.01,0,0.015,0c4.58-0.008,8.287-3.728,8.279-8.308
	l-0.085-48.049l9.314-2.662c5.054-1.443,8.45-5.945,8.45-11.2c0-5.256-3.395-9.759-8.45-11.203l-112.558-32.16
	c-1.49-0.426-3.068-0.426-4.557,0l-112.558,32.16c-5.054,1.443-8.45,5.945-8.45,11.201S136.096,248.065,141.149,249.508z
	 M309.618,300.233c0,0.305-0.248,0.553-0.553,0.553h-106.16c-0.305,0-0.553-0.248-0.553-0.553v-33.238l51.354,14.672
	c0.744,0.212,1.512,0.32,2.279,0.32s1.534-0.106,2.279-0.32l51.354-14.672V300.233z M255.986,211.546l93.663,26.76l-93.663,26.761
	l-93.662-26.76L255.986,211.546z"/>
<circle cx="353.313" cy="326.773" r="8.294"/>
</svg>