<svg xmlns="http://www.w3.org/2000/svg" version="1.1" xmlns:xlink="http://www.w3.org/1999/xlink" xmlns:svgjs="http://svgjs.dev/svgjs" width="2000" height="1200" preserveAspectRatio="none" viewBox="0 0 2000 1200"><g mask="url(&quot;#SvgjsMask1100&quot;)" fill="none"><path d="M345.26 732.2 a242.16 242.16 0 1 0 484.32 0 a242.16 242.16 0 1 0 -484.32 0z" fill="rgba(197, 153, 13, 0.08)" class="triangle-float1"></path><path d="M278.62588607922197 656.2589589457655L78.22970619351995 558.519211391402-19.51004136084356 758.915391277104 180.8861385248585 856.6551388314675z" fill="rgba(197, 153, 13, 0.08)" class="triangle-float2"></path><path d="M1199.7096474670973 847.3379660156374L1452.7206420782575 713.1187717797902 1242.746590280089 576.7600281676124z" fill="rgba(197, 153, 13, 0.08)" class="triangle-float3"></path><path d="M1353.68 1040.65 a328.86 328.86 0 1 0 657.72 0 a328.86 328.86 0 1 0 -657.72 0z" fill="rgba(197, 153, 13, 0.08)" class="triangle-float3"></path><path d="M610.3409749965117 1286.2416427797689L869.9641022922361 1196.8462310032332 520.945563219976 1026.6185154840446z" fill="rgba(197, 153, 13, 0.08)" class="triangle-float1"></path><path d="M1185.0017376863498 40.84628312375463L1009.0785507482128 311.74423501239505 1279.9765026368532 487.667421950532 1455.8996895749901 216.76947006189158z" fill="rgba(197, 153, 13, 0.08)" class="triangle-float3"></path><path d="M1706.271,675.756C1818.437,667.666,1908.477,594.488,1965.917,497.807C2024.892,398.542,2057.79,278.229,2002.753,176.727C1945.56,71.248,1826.201,15.268,1706.271,18.952C1592.4,22.45,1501.148,98.06,1439.746,194.022C1371.764,300.268,1311.425,430.243,1372.488,540.611C1434.77,653.183,1577.951,685.012,1706.271,675.756" fill="rgba(197, 153, 13, 0.08)" class="triangle-float3"></path><path d="M-199.35521214615804 273.78910884170864L25.052779316221603 455.51111724930524 206.7747877238182 231.10312578692557-17.633203738561463 49.381117379329z" fill="rgba(197, 153, 13, 0.08)" class="triangle-float1"></path><path d="M1559.77 136.03 a309.04 309.04 0 1 0 618.08 0 a309.04 309.04 0 1 0 -618.08 0z" fill="rgba(197, 153, 13, 0.08)" class="triangle-float2"></path><path d="M543.3159024519734 930.3599838556618L285.5615014005219 762.9723186327727 118.17383617763278 1020.7267196842242 375.9282372290844 1188.1143849071134z" fill="rgba(197, 153, 13, 0.08)" class="triangle-float2"></path><path d="M1621.3296052845935 1042.9219182111513L1481.73464497745 912.7475117759519 1351.5602385422508 1052.3424720830953 1491.1551988493943 1182.5168785182948z" fill="rgba(197, 153, 13, 0.08)" class="triangle-float1"></path><path d="M498.8631379432523 273.3543843101882L549.0490245326466 490.7333413017102 766.4279815241687 440.54745471231587 716.2420949347743 223.16849772079385z" fill="rgba(197, 153, 13, 0.08)" class="triangle-float2"></path></g><defs><mask id="SvgjsMask1100"><rect width="2000" height="1200" fill="#ffffff"></rect></mask></defs></svg>